<?xml version="1.0" encoding="UTF-8" standalone="no"?>
<!-- Created with Inkscape (http://www.inkscape.org/) -->

<svg
   width="320"
   height="320"
   viewBox="0 0 84.666667 84.666667"
   version="1.1"
   id="svg1"
   inkscape:version="1.3.2 (091e20e, 2023-11-25, custom)"
   sodipodi:docname="Manuel gostoso.svg"
   inkscape:export-filename="Manuel gostoso.png"
   inkscape:export-xdpi="96"
   inkscape:export-ydpi="96"
   xmlns:inkscape="http://www.inkscape.org/namespaces/inkscape"
   xmlns:sodipodi="http://sodipodi.sourceforge.net/DTD/sodipodi-0.dtd"
   xmlns="http://www.w3.org/2000/svg"
   xmlns:svg="http://www.w3.org/2000/svg">
  <sodipodi:namedview
     id="namedview1"
     pagecolor="#505050"
     bordercolor="#eeeeee"
     borderopacity="1"
     inkscape:showpageshadow="0"
     inkscape:pageopacity="0"
     inkscape:pagecheckerboard="0"
     inkscape:deskcolor="#505050"
     inkscape:document-units="mm"
     inkscape:zoom="0.90156115"
     inkscape:cx="155.84079"
     inkscape:cy="143.08514"
     inkscape:window-width="927"
     inkscape:window-height="1048"
     inkscape:window-x="922"
     inkscape:window-y="0"
     inkscape:window-maximized="0"
     inkscape:current-layer="layer1" />
  <defs
     id="defs1" />
  <g
     inkscape:label="Camada 1"
     inkscape:groupmode="layer"
     id="layer1">
    <path
       style="fill:#002d80;fill-opacity:1;stroke:#000000;stroke-width:0.600001;stroke-linecap:round;stroke-linejoin:bevel;stroke-miterlimit:2.7;stroke-dasharray:none;stroke-opacity:1"
       d="m 72.76592,56.905564 c -3.276916,-2.898736 -8.783795,-4.78116 -10.316634,-2.020495 -0.636203,11.522446 0.408965,21.971789 2.212614,26.883871 0,0 5.77669,1.151888 10.214719,1.859428 0,0 -0.321501,-10.741585 -0.250208,-14.932389 0.07482,-4.398034 -2.250647,-7.352238 -1.860491,-11.790415 z"
       id="path40"
       sodipodi:nodetypes="cscssc" />
    <path
       style="fill:#bdd4e9;fill-opacity:1;stroke:#000000;stroke-width:0.600001;stroke-linecap:round;stroke-linejoin:bevel;stroke-miterlimit:2.7;stroke-dasharray:none;stroke-opacity:1"
       d="m 82.890718,59.40008 -13.248913,0.0019 c 0,0 -24.296741,-5.825745 -29.64316,-0.848505 -5.34642,4.97724 -4.772599,11.900057 -2.869254,13.693018 5.791993,5.456081 22.543478,2.038901 22.543478,2.038901 0,0 13.29129,-0.399459 19.165628,-2.102451 5.874346,-1.702996 9.363784,0.648481 11.341952,-3.046755 1.978167,-3.695237 2.742222,-8.712293 -1.236883,-9.445075 -3.979101,-0.732812 -6.052848,-0.291033 -6.052848,-0.291033 z"
       id="path37"
       sodipodi:nodetypes="ccsscsssc" />
    <path
       style="fill:#bdd4e9;fill-opacity:1;stroke:#000000;stroke-width:0.600001;stroke-linecap:round;stroke-linejoin:bevel;stroke-miterlimit:2.7;stroke-dasharray:none;stroke-opacity:1"
       d="m 14.47408,84.206002 18.099139,0.203353 c 0,0 14.71873,0.252406 16.250798,-0.917532 2.913124,-2.224558 1.684708,-26.93408 -2.407654,-27.466866 C 37.33364,54.842474 23.128544,53.968862 23.128544,53.968862 19.128818,54.392006 4.1007622,57.633044 5.0855962,60.355986 Z"
       id="path36"
       sodipodi:nodetypes="ccssccc" />
    <path
       style="fill:#bdd4e9;fill-opacity:1;stroke:#000000;stroke-width:0.600001;stroke-linecap:round;stroke-linejoin:bevel;stroke-miterlimit:2.7;stroke-dasharray:none;stroke-opacity:1"
       d="m 36.729154,62.017553 0.999586,-3.364384 c 0,0 3.186787,-7.928313 0.03337,-9.795364 -3.153412,-1.867053 -13.514341,-7.363407 -13.86194,-5.212754 -0.805769,4.985431 -2.936533,9.072742 -2.936533,9.072742 -0.67445,1.925864 -4.088508,1.372588 -2.388055,3.555352 2.370796,3.04324 8.115514,7.974168 9.353161,6.946985 z"
       id="path35"
       sodipodi:nodetypes="ccsscscc" />
    <g
       id="g35"
       transform="translate(-4.4020863)">
      <path
         style="fill:#bdd4e9;fill-opacity:1;stroke:#000000;stroke-width:0.504;stroke-linecap:round;stroke-linejoin:bevel;stroke-miterlimit:2.7;stroke-dasharray:none;stroke-opacity:1"
         d="m 25.19122,32.124589 -5.869969,-10.269656 3.399017,-10.439839 10.43984,-5.098526 16.7523,2.6706567 c 0,0 6.069671,6.0696743 5.826887,9.7114783 -0.242787,3.641804 -1.213935,12.624922 -1.213935,12.624922 0,0 0.723304,4.257399 0.237731,6.685269 -0.485574,2.427869 -4.607896,15.165557 -4.607896,15.165557 0,0 -5.341313,2.427867 -7.526396,0.971148 C 40.443716,52.688877 27.31644,47.371773 27.31644,47.371773 l -1.439941,-5.608309 c 0,0 1.213935,5.098526 -3.884592,3.884591 C 16.893381,44.434121 5.2679642,33.382707 5.2679642,33.382707 c 0,0 -2.670657,-3.641805 2.185082,-2.913444 4.8557388,0.728361 17.7381738,1.655326 17.7381738,1.655326 z"
         id="path1"
         sodipodi:nodetypes="cccccscscsccscsc"
         inkscape:label="Rosto" />
      <path
         style="fill:#29792f;fill-opacity:1;stroke:#000000;stroke-width:0.504;stroke-linecap:round;stroke-linejoin:bevel;stroke-miterlimit:2.7;stroke-dasharray:none;stroke-opacity:1"
         d="m 22.08872,30.994205 6.094509,2.40347 c 0,0 -2.489306,-1.88844 -2.575145,-4.549423 -0.08584,-2.660983 3.090172,-7.897109 3.090172,-7.897109 0,0 -1.974275,-4.120231 1.287574,-4.721098 3.26185,-0.600867 14.420808,0.600867 14.420808,0.600867 0,0 5.321966,-4.978613 7.382081,-3.776879 2.060117,1.201734 3.261849,2.832659 3.261849,2.832659 L 49.900279,9.1913157 33.076002,6.3586574 22.775425,11.594785 17.727801,23.215989 Z"
         id="path2"
         sodipodi:nodetypes="ccscscscccccc" />
      <path
         style="fill:#f1d6eb;fill-opacity:1;stroke:#000000;stroke-width:0.104;stroke-linecap:round;stroke-linejoin:bevel;stroke-miterlimit:2.7;stroke-dasharray:none;stroke-opacity:1"
         d="m 48.39136,32.110097 c 0,0 3.572644,6.13184 4.004115,7.52955 0.37686,1.220802 0.107267,2.395237 -0.915562,3.004337 -1.957525,1.165715 -3.755228,0.253938 -4.452536,-0.323737 -0.603815,-0.500222 -0.4579,-1.364752 -1.730769,-0.668547 -0.624709,1.101386 -1.619474,1.473446 -2.398611,0.758984 -0.784824,-0.719678 -0.912514,-1.235657 -0.605619,-2.103037 0.31483,-0.889807 1.448043,-1.312166 1.521181,-1.845524 0.08163,-0.595295 -0.508646,-2.746821 0.203457,-3.691041 0.712103,-0.944222 1.322476,-2.231794 2.238036,-2.403472 0.915561,-0.171675 2.136308,-0.257513 2.136308,-0.257513 z"
         id="path3"
         inkscape:label="Naris"
         sodipodi:nodetypes="cssscsssssc" />
      <path
         style="fill:#e1a8d5;fill-opacity:1;stroke:#000000;stroke-width:0;stroke-linecap:round;stroke-linejoin:bevel;stroke-miterlimit:2.7;stroke-dasharray:none;stroke-opacity:1"
         d="m 45.832694,32.804982 c 0,0 0.378753,1.14365 0.762818,2.652808 0.56379,2.215379 0.488645,3.583521 0.488645,3.583521 -0.285149,0.02566 -1.145207,-0.377823 -1.905915,-0.473049 -0.7403,-0.09267 -1.928932,0.939649 -1.928932,0.939649 0,0 0.632198,-0.347391 0.76237,-1.055959 0.134631,-0.732841 0.05639,-0.64239 -0.02909,-1.181633 -0.06753,-0.42601 -0.216609,-1.320807 0.08765,-2.10376 0.429984,-1.106473 1.088019,-1.66121 1.088019,-1.66121 z"
         id="path4"
         sodipodi:nodetypes="cscscssscc" />
      <path
         style="fill:#29792f;fill-opacity:1;stroke:#000000;stroke-width:0.104;stroke-linecap:round;stroke-linejoin:bevel;stroke-miterlimit:2.7;stroke-dasharray:none;stroke-opacity:1"
         d="m 40.261625,26.771369 c -2.731352,0.485574 -6.980123,3.7025 -6.980123,3.7025 0,0 2.852745,-1.638811 5.219919,-1.456722 2.367172,0.182092 4.188074,0.910453 4.188074,0.910453 0,0 -0.0607,-1.942296 -0.728361,-2.306476 -0.667663,-0.364181 -1.699509,-0.849755 -1.699509,-0.849755 z"
         id="path5" />
      <path
         style="fill:#29792f;fill-opacity:1;stroke:#000000;stroke-width:0.104;stroke-linecap:round;stroke-linejoin:bevel;stroke-miterlimit:2.7;stroke-dasharray:none;stroke-opacity:1"
         d="m 49.609963,25.586238 c 1.799971,-0.210928 5.057077,1.362497 5.057077,1.362497 0,0 -2.090133,-0.653882 -3.53814,-0.0053 -1.448002,0.648554 -2.452598,1.601885 -2.452598,1.601885 0,0 -0.322714,-1.513415 0.0276,-1.93799 0.350316,-0.424576 0.906061,-1.021062 0.906061,-1.021062 z"
         id="path6" />
      <path
         style="fill:#29792f;fill-opacity:1;stroke:#000000;stroke-width:0.104;stroke-linecap:round;stroke-linejoin:bevel;stroke-miterlimit:2.7;stroke-dasharray:none;stroke-opacity:1"
         d="m 50.424582,43.485656 c 0,0 -3.010669,0.599451 -5.587388,0.470241 -2.256188,-0.113137 -3.914627,4.074662 -3.914627,4.074662 l 6.729987,-2.731981 c 0,0 1.489417,0.90842 4.201376,0.521556 0.700746,-0.09996 -1.429348,-2.334478 -1.429348,-2.334478 z"
         id="path7"
         sodipodi:nodetypes="csccsc" />
      <g
         id="g10"
         inkscape:label="Boca"
         transform="translate(-0.83006578,-1.4526143)">
        <path
           style="fill:#c24c4c;fill-opacity:1;stroke:#000000;stroke-width:0.104;stroke-linecap:round;stroke-linejoin:bevel;stroke-miterlimit:2.7;stroke-dasharray:none;stroke-opacity:1"
           d="m 44.794323,48.793216 c 0,0 1.952207,-1.044189 2.875186,-1.247905 1.481757,-0.327048 1.817272,-0.124934 2.967662,0.285785 1.150393,0.410676 1.309667,0.948136 1.338914,1.189154 0.0016,0.0137 -1.974561,0.446863 -3.980816,0.565537 -2.019038,0.11943 -5.320392,0.184685 -5.320392,0.184685 z"
           id="path10"
           sodipodi:nodetypes="csssscc" />
        <path
           style="fill:#a23737;fill-opacity:1;stroke:#000000;stroke-width:0.104;stroke-linecap:round;stroke-linejoin:bevel;stroke-miterlimit:2.7;stroke-dasharray:none;stroke-opacity:1"
           d="m 45.11456,50.810534 c 0,0 1.014962,0.508559 1.95576,0.599604 1.510364,0.146164 1.729858,0.09104 2.822399,-0.455227 1.092542,-0.546269 2.002993,-1.638811 2.002993,-1.881598 0,-0.0138 -2.151788,0.422394 -4.157728,0.546269 -2.018722,0.124665 -5.288597,0.108724 -5.288597,0.108724 z"
           id="path9"
           sodipodi:nodetypes="csssscc" />
      </g>
      <path
         style="fill:#e1a8d5;fill-opacity:1;stroke:#000000;stroke-width:0;stroke-linecap:round;stroke-linejoin:bevel;stroke-miterlimit:2.7;stroke-dasharray:none;stroke-opacity:1"
         d="m 52.272066,41.220232 c -0.594253,2.232055 -3.167609,2.121319 -5.054006,1.011331 -0.52248,-0.58207 -0.17376,-0.90466 -1.260296,-1.03635 -1.040109,-0.126063 -0.924229,1.714696 -2.709414,1.271222 -0.386921,-0.09612 -1.23353,-0.909726 -0.682603,-2.008209 0.637101,0.324039 1.274201,0.539604 1.911302,0.315077 2.137126,-1.121963 6.087269,1.949437 7.795017,0.446929 z"
         id="path54"
         sodipodi:nodetypes="ccssccc" />
    </g>
    <g
       id="g14"
       transform="translate(-5.2321521,-1.4526143)">
      <path
         style="fill:#eed6f1;fill-opacity:1;stroke:#000000;stroke-width:0.104;stroke-linecap:round;stroke-linejoin:bevel;stroke-miterlimit:2.7;stroke-dasharray:none;stroke-opacity:1"
         d="m 49.821287,33.127254 2.865044,0.283696 c 1.695008,-1.193391 1.725088,-1.358904 2.539304,-1.820251 -0.870234,-0.128319 -2.041526,2.535239 -3.638496,1.699253 L 49.41244,32.883893 c 0,0 0.05112,-1.634396 0.109459,-1.995367"
         id="path13"
         sodipodi:nodetypes="cccccc" />
      <path
         style="fill:#eed6f1;fill-opacity:1;stroke:#000000;stroke-width:0.104;stroke-linecap:round;stroke-linejoin:bevel;stroke-miterlimit:2.7;stroke-dasharray:none;stroke-opacity:1"
         d="m 42.524092,35.428735 -3.563466,1.08403 c -2.682548,-0.823243 -2.798347,-1.032525 -4.034064,-1.277035 1.027144,-0.576798 1.94142,-0.323024 3.54262,-2.191448 l 3.250717,-0.547438 c 0,0 0.383714,0.07874 0.297876,-0.65089"
         id="path11"
         sodipodi:nodetypes="cccccc" />
      <path
         style="fill:#874914;fill-opacity:1;stroke:#000000;stroke-width:0.104;stroke-linecap:round;stroke-linejoin:bevel;stroke-miterlimit:2.7;stroke-dasharray:none;stroke-opacity:1"
         id="path12"
         sodipodi:type="arc"
         sodipodi:cx="39.331413"
         sodipodi:cy="34.718529"
         sodipodi:rx="1.7602149"
         sodipodi:ry="1.6994824"
         sodipodi:start="0"
         sodipodi:end="5.860006"
         sodipodi:arc-type="arc"
         d="m 41.091628,34.718529 a 1.7602149,1.6994824 0 0 1 -1.57434,1.68998 1.7602149,1.6994824 0 0 1 -1.906834,-1.333065 1.7602149,1.6994824 0 0 1 1.171627,-1.971517 1.7602149,1.6994824 0 0 1 2.154275,0.91669"
         sodipodi:open="true" />
      <path
         style="fill:#000000;fill-opacity:1;stroke:#000000;stroke-width:0.104;stroke-linecap:round;stroke-linejoin:bevel;stroke-miterlimit:2.7;stroke-dasharray:none;stroke-opacity:1"
         id="path15"
         sodipodi:type="arc"
         sodipodi:cx="39.352814"
         sodipodi:cy="34.707771"
         sodipodi:rx="0.81598282"
         sodipodi:ry="0.72308379"
         sodipodi:start="0"
         sodipodi:end="6.1656407"
         sodipodi:arc-type="arc"
         d="m 40.168797,34.707771 a 0.81598282,0.72308379 0 0 1 -0.792008,0.722772 0.81598282,0.72308379 0 0 1 -0.838549,-0.680299 0.81598282,0.72308379 0 0 1 0.742731,-0.762748 0.81598282,0.72308379 0 0 1 0.882195,0.635476"
         sodipodi:open="true" />
      <path
         style="fill:#ffffff;fill-opacity:1;stroke:#000000;stroke-width:0;stroke-linecap:round;stroke-linejoin:bevel;stroke-miterlimit:2.7;stroke-dasharray:none;stroke-opacity:1"
         id="path16"
         sodipodi:type="arc"
         sodipodi:cx="40.640385"
         sodipodi:cy="34.41806"
         sodipodi:rx="0.8374452"
         sodipodi:ry="0.39046264"
         sodipodi:start="0"
         sodipodi:end="6.1656407"
         sodipodi:arc-type="arc"
         d="m 41.47783,34.41806 a 0.8374452,0.39046264 0 0 1 -0.81284,0.390294 0.8374452,0.39046264 0 0 1 -0.860605,-0.367359 0.8374452,0.39046264 0 0 1 0.762267,-0.411881 0.8374452,0.39046264 0 0 1 0.905399,0.343155"
         sodipodi:open="true" />
    </g>
    <path
       sodipodi:type="star"
       style="fill:#f5ff2f;fill-opacity:1;stroke:#000000;stroke-width:0.2;stroke-linecap:round;stroke-linejoin:bevel;stroke-miterlimit:2.7;stroke-dasharray:none;stroke-opacity:1"
       id="path19"
       inkscape:flatsided="false"
       sodipodi:sides="5"
       sodipodi:cx="60.283497"
       sodipodi:cy="31.75"
       sodipodi:r1="5.6697927"
       sodipodi:r2="0.66551471"
       sodipodi:arg1="0.60322983"
       sodipodi:arg2="1.1190457"
       inkscape:rounded="0"
       inkscape:randomized="0"
       d="m 64.952614,34.966503 -4.378593,-2.61775 -1.906764,4.835796 1.136569,-4.973219 -5.188337,-0.319097 5.08103,-0.455868 -1.299804,-5.033009 2.003681,4.691476 4.385014,-2.791472 -3.842688,3.35536 z"
       inkscape:transform-center-x="0.13762524"
       inkscape:transform-center-y="-0.45112494"
       transform="translate(-1.1235381,-23.463046)" />
    <g
       id="g25"
       inkscape:label="Sombras"
       transform="translate(-5.2321521,-1.4526143)">
      <path
         style="fill:#8d8ad7;fill-opacity:1;stroke:#000000;stroke-width:0;stroke-linecap:round;stroke-linejoin:bevel;stroke-miterlimit:2.7;stroke-dasharray:none;stroke-opacity:1"
         d="m 37.784574,45.268122 c -3.990362,-2.316656 -6.180133,-4.10734 -7.043339,-5.502609 -0.70966,-1.147081 -1.907568,-4.475456 -1.907568,-4.475456 -0.386742,1.509778 -1.119544,2.413948 -0.78905,5.178888 2.940268,4.524016 2.996092,3.077171 9.739957,4.799177 z"
         id="path20"
         sodipodi:nodetypes="csccc" />
      <path
         style="fill:#8d8ad7;fill-opacity:1;stroke:#000000;stroke-width:0;stroke-linecap:round;stroke-linejoin:bevel;stroke-miterlimit:2.7;stroke-dasharray:none;stroke-opacity:1"
         d="m 42.013985,31.526798 c -3.385615,0.228211 -5.287128,1.470163 -6.063614,2.222531 -0.968711,0.938622 -1.687464,1.320624 -1.687464,1.320624 1.973756,-2.121758 2.876542,-2.747759 3.493767,-3.090219 0.590961,-0.227109 1.101109,-0.676427 4.257311,-0.452936 z"
         id="path21"
         sodipodi:nodetypes="csccc" />
      <path
         style="fill:#8d8ad7;fill-opacity:1;stroke:#000000;stroke-width:0;stroke-linecap:round;stroke-linejoin:bevel;stroke-miterlimit:2.7;stroke-dasharray:none;stroke-opacity:1"
         d="m 42.804669,35.681701 c -1.281911,1.217935 -2.516519,1.669061 -3.133975,1.801999 -0.770313,0.165848 -1.196579,0.354657 -1.196579,0.354657 1.66623,-0.294144 2.269186,-0.500724 2.641903,-0.659848 0.310288,-0.173426 0.69517,-0.270174 1.688651,-1.496808 z"
         id="path22"
         sodipodi:nodetypes="csccc" />
      <path
         style="fill:#8d8ad7;fill-opacity:1;stroke:#000000;stroke-width:0;stroke-linecap:round;stroke-linejoin:bevel;stroke-miterlimit:2.7;stroke-dasharray:none;stroke-opacity:1"
         d="m 49.548893,30.732754 c 3.107146,-0.709414 3.552531,-0.406417 4.361589,-0.292522 0.464323,0.06537 1.32952,0.975077 1.32952,0.975077 -0.266309,-1.731062 -1.602923,-2.076426 -2.114058,-2.131251 -0.491726,-0.04186 -2.235191,0.272048 -3.577051,1.448696 z"
         id="path23"
         sodipodi:nodetypes="csccc" />
      <path
         style="fill:#8d8ad7;fill-opacity:1;stroke:#000000;stroke-width:0;stroke-linecap:round;stroke-linejoin:bevel;stroke-miterlimit:2.7;stroke-dasharray:none;stroke-opacity:1"
         d="m 49.626067,33.187185 c 1.281911,1.217935 2.516519,1.669061 3.133975,1.801999 0.770313,0.165848 1.196579,0.354657 1.196579,0.354657 -1.66623,-0.294144 -2.269186,-0.500724 -2.641903,-0.659848 -0.310288,-0.173426 -0.69517,-0.270174 -1.688651,-1.496808 z"
         id="path24"
         sodipodi:nodetypes="csccc" />
      <path
         style="fill:#8d8ad7;fill-opacity:1;stroke:#000000;stroke-width:0;stroke-linecap:round;stroke-linejoin:bevel;stroke-miterlimit:2.7;stroke-dasharray:none;stroke-opacity:1"
         d="M 26.53792,40.927683 C 24.06667,39.206173 18.15408,36.63525 17.114915,36.336714 15.818496,35.964274 6.1049603,32.963432 6.1049603,32.963432 c 2.822956,0.654591 15.8478287,2.813054 16.4522277,3.177673 0.501838,-0.15559 2.613503,1.352926 3.980732,4.786578 z"
         id="path25"
         sodipodi:nodetypes="csccc" />
      <path
         style="fill:#133715;fill-opacity:1;stroke:#000000;stroke-width:0;stroke-linecap:round;stroke-linejoin:bevel;stroke-miterlimit:2.7;stroke-dasharray:none;stroke-opacity:1"
         d="m 28.796981,34.666431 c -4.137098,-2.059868 -5.116295,-1.429404 -5.979501,-2.824673 -0.70966,-1.147081 -4.071928,-7.41018 -4.071928,-7.41018 l 7.5841,4.667546 c -0.35761,3.08665 0.691101,3.76045 2.467329,5.567307 z"
         id="path26"
         sodipodi:nodetypes="csccc" />
      <path
         style="fill:#8d8ad7;fill-opacity:1;stroke:#000000;stroke-width:0;stroke-linecap:round;stroke-linejoin:bevel;stroke-miterlimit:2.7;stroke-dasharray:none;stroke-opacity:1"
         d="m 51.273134,50.118816 c -2.488316,2.076606 -4.268513,1.366568 -5.248607,1.095953 -0.745175,-0.205752 -3.559886,-1.476387 -3.559886,-1.476387 1.29075,1.604703 3.165469,2.752977 4.129615,3.156212 1.692879,0.687999 3.555354,0.53113 4.678878,-2.775778 z"
         id="path27"
         sodipodi:nodetypes="csccc" />
      <path
         style="fill:#8d8ad7;fill-opacity:1;stroke:#000000;stroke-width:0;stroke-linecap:round;stroke-linejoin:bevel;stroke-miterlimit:2.7;stroke-dasharray:none;stroke-opacity:1"
         d="M 43.507286,55.686393 C 38.569599,53.319632 32.594669,50.827424 28.613563,49.08326 c 6.50986,5.911865 7.391156,7.329611 10.142797,8.773926 2.8669,0.415402 3.436301,0.142446 4.750926,-2.170793 z"
         id="path46"
         sodipodi:nodetypes="cccc" />
      <path
         style="fill:#8d8ad7;fill-opacity:1;stroke:#000000;stroke-width:0;stroke-linecap:round;stroke-linejoin:bevel;stroke-miterlimit:2.7;stroke-dasharray:none;stroke-opacity:1"
         d="M 85.116225,73.333553 C 84.162828,72.273246 79.016174,61.880541 78.234608,61.230178 77.73917,60.81791 77.247621,61.055777 77.247621,61.055777 c -0.150454,2.053892 -1.14485,4.97638 -0.714744,5.928843 1.858305,1.138937 7.010808,5.874103 8.583348,6.348933 z"
         id="path48"
         sodipodi:nodetypes="csccc" />
      <path
         style="fill:#8d8ad7;fill-opacity:1;stroke:#000000;stroke-width:0;stroke-linecap:round;stroke-linejoin:bevel;stroke-miterlimit:2.7;stroke-dasharray:none;stroke-opacity:1"
         d="m 52.208577,44.194341 c -1.364929,0.955153 -3.824162,0.734126 -4.781409,-0.897751 -0.351091,-0.598527 -0.97393,-0.37283 -1.200879,-0.244023 -0.358984,0.203744 -0.280595,0.578042 -0.871294,0.986651 -0.515588,0.356652 -1.478018,0.03148 -1.478018,0.03148 -0.121586,1.054443 1.661423,0.60696 2.313754,0.514961 0.280543,0.15608 3.885511,1.411547 6.017846,-0.391315 z"
         id="path55"
         sodipodi:nodetypes="csssccc" />
    </g>
    <path
       style="fill:#bdd4e9;fill-opacity:1;stroke:#000000;stroke-width:0.600001;stroke-linecap:round;stroke-linejoin:bevel;stroke-miterlimit:2.7;stroke-dasharray:none;stroke-opacity:1"
       d="m 65.904048,37.500845 4.559072,10.310346 c 0,0 3.395728,21.788051 9.474201,23.489724 6.078475,1.701675 9.723291,-0.991652 10.595715,-3.358893 2.654843,-7.203651 1.465478,-11.509081 1.465478,-11.509081 0,0 -10.341534,-18.364104 -13.812766,-22.094478 -3.471235,-3.730379 -2.668693,-7.608001 -6.496578,-7.321705 -3.827887,0.286297 -8.363991,2.170627 -7.619371,5.629531 0.744618,3.458902 1.834249,4.854556 1.834249,4.854556 z"
       id="path34"
       sodipodi:nodetypes="ccsscsssc" />
    <g
       id="g33"
       transform="matrix(0.43544838,-0.76948297,0.72736748,0.38475132,-15.131397,55.47692)"
       style="stroke-width:1.17263">
      <path
         style="fill:#bdd4e9;fill-opacity:1;stroke:#000000;stroke-width:0.703581;stroke-linecap:round;stroke-linejoin:bevel;stroke-miterlimit:2.7;stroke-dasharray:none;stroke-opacity:1"
         d="m 67.326339,69.862997 c 0,0 0.865894,-1.607497 4.118094,-2.796243 1.437926,-0.525591 3.936657,-1.409201 5.718464,-2.045865 0.292344,-0.10446 4.19903,1.563369 4.19903,1.563369 l 0.183391,5.093129 -3.548784,5.794157 -3.820587,0.0846 c 0.254634,-0.01459 1.295702,-3.295283 1.295702,-3.295283 -0.05184,-1.989791 -0.617311,-2.373236 0.959529,-2.771488 1.725627,-0.435829 -1.1338,0.48697 -1.403443,-0.378015 -0.539252,-1.729861 1.483616,4.581428 -1.198218,6.540802 -2.681834,1.959373 -4.79706,-0.810511 -4.79706,-0.810511 0,0 -2.787374,-2.337506 -2.581038,-3.790315 0.206338,-1.45281 0.87492,-3.188343 0.87492,-3.188343 z"
         id="path33"
         sodipodi:nodetypes="cssccccsssscsc" />
      <path
         style="fill:#bdd4e9;fill-opacity:1;stroke:#000000;stroke-width:0.703581;stroke-linecap:round;stroke-linejoin:bevel;stroke-miterlimit:2.7;stroke-dasharray:none;stroke-opacity:1"
         d="m 64.74542,65.114507 c 0,0 0.924767,-1.784385 4.398089,-3.103941 1.535693,-0.583427 4.204316,-1.564269 6.10727,-2.270992 0.312221,-0.115954 4.484529,1.735402 4.484529,1.735402 l 0.19586,5.653576 -3.790071,6.431746 -4.080354,0.09391 c 0.271946,-0.0162 1.383798,-3.657895 1.383798,-3.657895 -0.05536,-2.208748 -0.659283,-2.634387 1.024769,-3.076463 1.842955,-0.483787 -1.210889,0.540557 -1.498865,-0.419611 -0.575917,-1.920215 1.584489,5.085568 -1.279687,7.260551 -2.864176,2.174982 -5.123219,-0.8997 -5.123219,-0.8997 0,0 -2.976891,-2.594725 -2.756526,-4.207401 0.220367,-1.612677 0.934407,-3.539187 0.934407,-3.539187 z"
         id="path32"
         sodipodi:nodetypes="cssccccsssscsc" />
      <path
         style="fill:#bdd4e9;fill-opacity:1;stroke:#000000;stroke-width:0.703581;stroke-linecap:round;stroke-linejoin:bevel;stroke-miterlimit:2.7;stroke-dasharray:none;stroke-opacity:1"
         d="m 60.876562,67.91408 c 0,0 -0.213151,-2.517454 2.591454,-6.242954 2.804608,-3.725501 9.715215,-11.352392 9.715215,-11.352392 l 2.380712,-3.026628 4.208412,2.959572 -1.775667,4.293716 c 0,0 -6.854651,6.900364 -7.45747,9.348128 -0.602819,2.44776 5.088994,4.355087 3.504237,8.584208 -1.584758,4.229123 -6.043176,2.465426 -6.043176,2.465426 0,0 -4.899249,-0.773117 -5.745421,-2.637119 -0.846169,-1.864005 -1.378296,-4.391957 -1.378296,-4.391957 z"
         id="path31"
         sodipodi:nodetypes="csccccsscsc" />
      <path
         style="fill:#bdd4e9;fill-opacity:1;stroke:#000000;stroke-width:0.703581;stroke-linecap:round;stroke-linejoin:bevel;stroke-miterlimit:2.7;stroke-dasharray:none;stroke-opacity:1"
         d="m 60.892749,72.220526 c 0,0 -1.798785,-1.774086 -2.09025,-6.428139 -0.291463,-4.654055 0,-14.941961 0,-14.941961 l -0.15912,-3.84746 5.121712,-0.487714 1.442669,4.416752 c 0,0 -0.721335,9.699533 0.412192,11.951211 1.133524,2.251676 6.698107,-10e-7 8.243824,4.243545 1.545717,4.243548 -2.988387,5.8024 -2.988387,5.8024 0,0 -4.224961,2.598088 -6.079821,1.732061 -1.85486,-0.866031 -3.902819,-2.440695 -3.902819,-2.440695 z"
         id="path30"
         sodipodi:nodetypes="csccccsscsc" />
      <path
         style="fill:#bdd4e9;fill-opacity:1;stroke:#000000;stroke-width:0.70358;stroke-linecap:round;stroke-linejoin:bevel;stroke-miterlimit:2.7;stroke-dasharray:none;stroke-opacity:1"
         d="m 74.654002,67.909721 c 0,0 -9.441993,-7.989379 -11.050245,-7.211191 -3.26228,1.578525 -5.914214,6.121731 -5.499183,8.196895 0.415033,2.075161 0.932177,9.240712 3.320261,10.946486 1.089463,0.778187 6.433007,1.76389 6.433007,1.76389 0,0 4.669118,-0.570672 6.121733,-1.400736 1.452613,-0.830067 2.80147,-6.536766 -1.14134,-7.159315 -3.94281,-0.622548 -10.583333,-3.94281 -10.583333,-3.94281 0,0 10.414968,5.355079 11.102122,3.683415 1.257496,-3.059152 1.296978,-4.876634 1.296978,-4.876634 z"
         id="path29"
         sodipodi:nodetypes="cssscsscsc" />
    </g>
    <path
       style="fill:#0052dd;fill-opacity:1;stroke:#000000;stroke-width:0.600001;stroke-linecap:round;stroke-linejoin:bevel;stroke-miterlimit:2.7;stroke-dasharray:none;stroke-opacity:1"
       d="m 72.178975,57.492509 -9.580508,-2.932824 c 0,0 -14.314693,-2.996649 -15.263011,-1.288714 -1.528985,2.753724 2.2996,19.228891 2.413249,23.817817 0.110987,4.481451 10.951317,1.011747 10.951317,1.011747 0,0 8.564678,-0.902419 11.828818,0.245329 0,0 -1.9356,-6.339498 -1.864307,-10.530302 0.07482,-4.398034 1.124286,-5.884876 1.514442,-10.323053 z"
       id="path38"
       sodipodi:nodetypes="ccsscssc" />
    <path
       style="fill:#0052dd;fill-opacity:1;stroke:#000000;stroke-width:0.600001;stroke-linecap:round;stroke-linejoin:bevel;stroke-miterlimit:2.7;stroke-dasharray:none;stroke-opacity:1"
       d="m 72.325711,56.318619 c -3.276916,-2.898736 -8.343586,-4.194215 -9.876425,-1.43355 -0.636203,11.522446 0.408965,21.971789 2.212614,26.883871 0,0 5.77669,1.151888 10.214719,1.859428 0,0 -4.283379,-11.622002 -4.212086,-15.812806 0.07482,-4.398034 1.271022,-7.058766 1.661178,-11.496943 z"
       id="path39"
       sodipodi:nodetypes="cscssc" />
    <path
       style="fill:#8d8ad7;fill-opacity:1;stroke:#000000;stroke-width:0;stroke-linecap:round;stroke-linejoin:bevel;stroke-miterlimit:2.7;stroke-dasharray:none;stroke-opacity:1"
       d="m 75.509768,30.587468 c -0.511169,1.704766 -1.167568,3.435396 -1.567356,4.142854 -0.415885,0.735945 -2.743089,3.340244 -3.376484,3.897898 -1.470861,1.294976 -3.496513,0.908766 -3.496513,0.908766 1.074682,1.688131 3.269007,1.099564 5.151727,0.08062 1.385099,-1.222772 3.64038,-3.83864 3.288626,-9.030139 z"
       id="path49"
       sodipodi:nodetypes="cssccc" />
    <path
       style="fill:#0052dd;fill-opacity:1;stroke:#000000;stroke-width:0.600001;stroke-linecap:round;stroke-linejoin:bevel;stroke-miterlimit:2.7;stroke-dasharray:none;stroke-opacity:1"
       d="m 27.130958,62.921749 -9.727244,-7.921856 c 0,0 -11.8201776,1.992383 -12.7684956,3.700318 -1.528985,2.753724 0.1571534,42.321399 4.7327984,42.688319 3.1924472,0.256 17.5427532,0.0202 17.5427532,0.0202 0,0 5.755834,0.22112 9.746281,0.02 0,0 -5.116861,-23.535875 -7.665602,-26.863313 -3.593585,-4.691506 -2.250647,-7.205501 -1.860491,-11.643678 z"
       id="path41"
       sodipodi:nodetypes="ccsscssc" />
    <path
       style="fill:#002d80;fill-opacity:1;stroke:#000000;stroke-width:0.600001;stroke-linecap:round;stroke-linejoin:bevel;stroke-miterlimit:2.7;stroke-dasharray:none;stroke-opacity:1"
       d="m 20.381093,52.356741 c -4.010597,1.50335 -11.4850063,2.66508 -10.169898,3.848953 3.340542,3.00719 1.436119,6.271015 5.440811,13.971085 5.563542,-6.4424 9.182119,-9.435853 11.388609,0.685538 0,0 0.155494,-6.849486 0.336736,-7.448842 0.73666,-2.43608 -7.386414,-6.618557 -6.996258,-11.056734 z"
       id="path42"
       sodipodi:nodetypes="cscssc" />
    <path
       style="fill:#0052dd;fill-opacity:1;stroke:#000000;stroke-width:0.600001;stroke-linecap:round;stroke-linejoin:bevel;stroke-miterlimit:2.7;stroke-dasharray:none;stroke-opacity:1"
       d="m 35.910811,63.361958 2.243697,-7.77512 c 0,0 6.727388,-1.797583 10.463694,-2.584163 3.082168,-0.648869 2.085221,48.292525 2.085221,48.292525 -4.634161,-0.41299 -13.048602,-0.25853 -13.048602,-0.25853 0,0 -20.686581,0.38566 -25.922127,0.0808 0,0 4.540274,-22.405258 4.741306,-27.639976 0,0 19.826967,-5.677359 19.436811,-10.115536 z"
       id="path43"
       sodipodi:nodetypes="ccsscssc" />
    <path
       style="fill:#002d80;fill-opacity:1;stroke:#000000;stroke-width:0.600001;stroke-linecap:round;stroke-linejoin:bevel;stroke-miterlimit:2.7;stroke-dasharray:none;stroke-opacity:1"
       d="m 46.471881,53.152463 c -0.954104,3.733498 0.904286,4.820561 3.359935,13.148394 -6.776091,-0.160079 -13.143945,-4.133735 -15.363075,-0.599484 -1.588075,2.529213 3.634335,-11.050106 3.656426,-10.632795 z"
       id="path45"
       sodipodi:nodetypes="ccscc" />
    <path
       style="fill:#0052dd;fill-opacity:1;stroke:#000000;stroke-width:0.600001;stroke-linecap:round;stroke-linejoin:bevel;stroke-miterlimit:2.7;stroke-dasharray:none;stroke-opacity:1"
       d="M 9.859063,85.099773 6.8387068,70.700668 c 0,0 -1.9121601,-12.239642 -2.3869088,-12.000457 -12.9347105,6.516674 -12.9529827,41.793829 -13.1774735,42.416629 -0.099498,0.27605 8.23669747,0.27807 8.23669747,0.27807 0,0 5.70741713,0.24559 9.33430213,0.0252 0.1906478,-0.0116 0.7118758,-10.766618 1.0137389,-16.320357 z"
       id="path44"
       sodipodi:nodetypes="ccsscscc" />
    <path
       style="fill:#808000;fill-opacity:1;stroke:#000000;stroke-width:0.600001;stroke-linecap:round;stroke-linejoin:bevel;stroke-miterlimit:2.7;stroke-dasharray:none;stroke-opacity:1"
       d="m 21.276751,73.95505 -2.641252,3.228197 2.641252,3.081459 2.787988,-3.228194 z"
       id="path47" />
    <path
       style="fill:#8d8ad7;fill-opacity:1;stroke:#000000;stroke-width:0;stroke-linecap:round;stroke-linejoin:bevel;stroke-miterlimit:2.7;stroke-dasharray:none;stroke-opacity:1"
       d="m 72.345144,24.465736 c -0.874323,-0.681672 -3.34649,-6.473509 -3.746278,-5.766051 -0.415885,0.735945 -1.086501,-0.04171 -0.575013,0.629516 3.872684,5.082149 3.714679,6.667344 3.714679,6.667344 2.31978,1.065582 1.920151,1.358959 3.024685,-0.645687 -1.85045,-0.460477 -0.80927,-0.0714 -2.418073,-0.885122 z"
       id="path50"
       sodipodi:nodetypes="cssccc" />
    <path
       style="fill:#8d8ad7;fill-opacity:1;stroke:#000000;stroke-width:0;stroke-linecap:round;stroke-linejoin:bevel;stroke-miterlimit:2.7;stroke-dasharray:none;stroke-opacity:1"
       d="m 62.799392,22.442452 c -1.444993,-0.78543 -1.115689,-2.634457 -1.515477,-1.926999 -0.415885,0.735945 -0.584845,2.461896 -0.05622,3.119712 0.415146,0.516606 0.396684,1.76005 1.103154,1.94418 0.851603,0.221955 1.937097,-0.257228 1.937097,-0.257228 0.0371,-0.802065 1.090085,-0.456809 1.831466,-2.098301 -2.057966,-0.04545 -1.120545,0.343632 -3.300018,-0.781364 z"
       id="path51"
       sodipodi:nodetypes="csssccc" />
    <path
       style="fill:#8d8ad7;fill-opacity:1;stroke:#000000;stroke-width:0;stroke-linecap:round;stroke-linejoin:bevel;stroke-miterlimit:2.7;stroke-dasharray:none;stroke-opacity:1"
       d="m 56.003232,22.59809 c -0.199895,-1.096705 -0.648778,-2.167545 -1.463598,-4.469074 -0.282116,-0.796861 -2.251523,-3.021401 -1.975748,-2.223834 1.434367,4.148325 2.469581,7.549288 2.469581,7.549288 0.653839,1.221508 1.32517,3.795926 1.696788,4.678527 0.251262,0.596755 0.527252,0.256148 1.172259,0.01933 -0.03468,-1.186784 -0.60175,-1.108981 -1.276733,-3.842229 z"
       id="path52"
       sodipodi:nodetypes="csscsccc" />
    <path
       style="fill:#8d8ad7;fill-opacity:1;stroke:#000000;stroke-width:0;stroke-linecap:round;stroke-linejoin:bevel;stroke-miterlimit:2.7;stroke-dasharray:none;stroke-opacity:1"
       d="m 51.411178,30.516602 c -0.590444,-0.518609 -2.291283,-1.245456 -3.437266,-1.696614 -0.786567,-0.309661 -3.603453,-0.851405 -2.860494,-0.451184 3.518725,1.895484 7.105703,3.696322 7.105703,3.696322 1.071653,0.650276 4.438565,2.459144 5.32757,2.815169 0.601085,0.24072 -0.437674,-0.855312 -0.629657,-1.480567 -0.575075,-0.259234 -1.651995,-0.608234 -3.410301,-1.682411 z"
       id="path53"
       sodipodi:nodetypes="csscsccc" />
    <path
       sodipodi:type="star"
       style="fill:#f5ff2f;fill-opacity:1;stroke:#000000;stroke-width:0.50000001;stroke-linecap:round;stroke-linejoin:bevel;stroke-miterlimit:2.7;stroke-dasharray:none;stroke-opacity:1"
       id="path56"
       inkscape:flatsided="false"
       sodipodi:sides="5"
       sodipodi:cx="60.283497"
       sodipodi:cy="31.75"
       sodipodi:r1="5.6697927"
       sodipodi:r2="0.66551471"
       sodipodi:arg1="0.60322983"
       sodipodi:arg2="1.1190457"
       inkscape:rounded="0"
       inkscape:randomized="0"
       d="m 64.952614,34.966503 -4.378593,-2.61775 -1.906764,4.835796 1.136569,-4.973219 -5.188337,-0.319097 5.08103,-0.455868 -1.299804,-5.033009 2.003681,4.691476 4.385014,-2.791472 -3.842688,3.35536 z"
       inkscape:transform-center-x="0.027524556"
       inkscape:transform-center-y="0.090225236"
       transform="matrix(0.2,0,0,-0.2,42.974751,18.032518)" />
    <path
       sodipodi:type="star"
       style="fill:#f5ff2f;fill-opacity:1;stroke:#000000;stroke-width:0.50000001;stroke-linecap:round;stroke-linejoin:bevel;stroke-miterlimit:2.7;stroke-dasharray:none;stroke-opacity:1"
       id="path57"
       inkscape:flatsided="false"
       sodipodi:sides="5"
       sodipodi:cx="60.283497"
       sodipodi:cy="31.75"
       sodipodi:r1="5.6697927"
       sodipodi:r2="0.66551471"
       sodipodi:arg1="0.60322983"
       sodipodi:arg2="1.1190457"
       inkscape:rounded="0"
       inkscape:randomized="0"
       d="m 64.952614,34.966503 -4.378593,-2.61775 -1.906764,4.835796 1.136569,-4.973219 -5.188337,-0.319097 5.08103,-0.455868 -1.299804,-5.033009 2.003681,4.691476 4.385014,-2.791472 -3.842688,3.35536 z"
       inkscape:transform-center-x="0.027524556"
       inkscape:transform-center-y="0.090225236"
       transform="matrix(0.2,0,0,-0.2,48.68145,19.692649)" />
    <path
       sodipodi:type="star"
       style="fill:#f5ff2f;fill-opacity:1;stroke:#000000;stroke-width:0.50000001;stroke-linecap:round;stroke-linejoin:bevel;stroke-miterlimit:2.7;stroke-dasharray:none;stroke-opacity:1"
       id="path58"
       inkscape:flatsided="false"
       sodipodi:sides="5"
       sodipodi:cx="60.283497"
       sodipodi:cy="31.75"
       sodipodi:r1="5.6697927"
       sodipodi:r2="0.66551471"
       sodipodi:arg1="0.60322983"
       sodipodi:arg2="1.1190457"
       inkscape:rounded="0"
       inkscape:randomized="0"
       d="m 64.952614,34.966503 -4.378593,-2.61775 -1.906764,4.835796 1.136569,-4.973219 -5.188337,-0.319097 5.08103,-0.455868 -1.299804,-5.033009 2.003681,4.691476 4.385014,-2.791472 -3.842688,3.35536 z"
       inkscape:transform-center-x="0.027524556"
       inkscape:transform-center-y="0.090225236"
       transform="matrix(0.2,0,0,-0.2,51.897953,14.608499)" />
    <path
       sodipodi:type="star"
       style="fill:#f5ff2f;fill-opacity:1;stroke:#000000;stroke-width:0.50000001;stroke-linecap:round;stroke-linejoin:bevel;stroke-miterlimit:2.7;stroke-dasharray:none;stroke-opacity:1"
       id="path59"
       inkscape:flatsided="false"
       sodipodi:sides="5"
       sodipodi:cx="60.283497"
       sodipodi:cy="31.75"
       sodipodi:r1="5.6697927"
       sodipodi:r2="0.66551471"
       sodipodi:arg1="0.60322983"
       sodipodi:arg2="1.1190457"
       inkscape:rounded="0"
       inkscape:randomized="0"
       d="m 64.952614,34.966503 -4.378593,-2.61775 -1.906764,4.835796 1.136569,-4.973219 -5.188337,-0.319097 5.08103,-0.455868 -1.299804,-5.033009 2.003681,4.691476 4.385014,-2.791472 -3.842688,3.35536 z"
       inkscape:transform-center-x="0.027524556"
       inkscape:transform-center-y="0.090225236"
       transform="matrix(0.2,0,0,-0.2,47.955143,10.665689)" />
    <path
       sodipodi:type="star"
       style="fill:#f5ff2f;fill-opacity:1;stroke:#000000;stroke-width:0.50000001;stroke-linecap:round;stroke-linejoin:bevel;stroke-miterlimit:2.7;stroke-dasharray:none;stroke-opacity:1"
       id="path60"
       inkscape:flatsided="false"
       sodipodi:sides="5"
       sodipodi:cx="60.283497"
       sodipodi:cy="31.75"
       sodipodi:r1="5.6697927"
       sodipodi:r2="0.66551471"
       sodipodi:arg1="0.60322983"
       sodipodi:arg2="1.1190457"
       inkscape:rounded="0"
       inkscape:randomized="0"
       d="m 64.952614,34.966503 -4.378593,-2.61775 -1.906764,4.835796 1.136569,-4.973219 -5.188337,-0.319097 5.08103,-0.455868 -1.299804,-5.033009 2.003681,4.691476 4.385014,-2.791472 -3.842688,3.35536 z"
       inkscape:transform-center-x="0.027524556"
       inkscape:transform-center-y="0.090225236"
       transform="matrix(0.2,0,0,-0.2,43.389784,12.222062)" />
  </g>
</svg>
