<?xml version="1.0" encoding="UTF-8" standalone="no"?>
<!-- Created with Inkscape (http://www.inkscape.org/) -->

<svg
   width="1280"
   height="720"
   viewBox="0 0 1280 720"
   version="1.1"
   id="svg1"
   inkscape:version="1.3.2 (091e20e, 2023-11-25, custom)"
   sodipodi:docname="material.svg"
   xmlns:inkscape="http://www.inkscape.org/namespaces/inkscape"
   xmlns:sodipodi="http://sodipodi.sourceforge.net/DTD/sodipodi-0.dtd"
   xmlns="http://www.w3.org/2000/svg"
   xmlns:svg="http://www.w3.org/2000/svg">
  <sodipodi:namedview
     id="namedview1"
     pagecolor="#505050"
     bordercolor="#eeeeee"
     borderopacity="1"
     inkscape:showpageshadow="0"
     inkscape:pageopacity="0"
     inkscape:pagecheckerboard="0"
     inkscape:deskcolor="#505050"
     inkscape:document-units="px"
     inkscape:zoom="0.53203125"
     inkscape:cx="37.591777"
     inkscape:cy="638.12041"
     inkscape:window-width="1920"
     inkscape:window-height="1017"
     inkscape:window-x="-8"
     inkscape:window-y="-8"
     inkscape:window-maximized="1"
     inkscape:current-layer="layer1" />
  <defs
     id="defs1" />
  <g
     inkscape:label="Camada 1"
     inkscape:groupmode="layer"
     id="layer1">
    <path
       style="fill:#d38d5f;fill-opacity:1;stroke:#000000;stroke-opacity:1"
       d="M 683.15762,327.91836 612.53333,213.95102 486.07604,254.31321 545.9692,385.57183 Z"
       id="path28"
       sodipodi:nodetypes="ccccc" />
    <path
       style="fill:#deaa87;fill-opacity:1;stroke:#000000;stroke-opacity:1"
       d="m 566.18383,372.1396 166.79828,-85.06048 67.11804,204.01225 -280.43377,-38.54303 5.31628,-62.46629 z"
       id="path29"
       sodipodi:nodetypes="cccccc" />
    <g
       id="g8"
       inkscape:label="cabeça"
       transform="rotate(-13.882918,416.8888,708.6209)">
      <path
         id="path1"
         style="fill:#000000"
         d="m 750.25977,61.136719 -33.61133,72.478511 c -16.5175,-10.494 -38.37116,-16.29939 -64.43164,-18.02148 -19.80958,-1.30902 -36.96441,1.14309 -51.60352,6.77734 L 600.07422,65.789062 557.6875,157.18555 c -12.66408,19.16747 -19.90999,44.08255 -22.00391,73.06445 0,0 1.9229,15.80202 0.83399,41.95898 -1.15853,27.82927 5.82617,66.2565 12.33203,77.09961 0,0 44.15989,62.32227 61.07617,62.32227 16.91628,0 108.0454,-62.64374 121.23438,-90.2207 10.33773,-21.61526 14.16793,-69.77899 17.85546,-91.16016 1.85388,-10.74917 2.61252,-20.63175 2.41016,-29.74023 l 0.16406,0.17968 z" />
      <path
         style="fill:#aa8800;fill-opacity:1"
         d="m 653.57018,246.21022 c 0,0 5.59344,-48.25151 8.28713,-59.16031 3.67942,-14.90077 25.07033,-66.69536 25.07033,-66.69536 0,0 32.03502,8.12708 28.77656,15.45245 -2.99423,6.73137 -19.70443,36.08187 -24.25553,52.92094 -3.32267,12.2939 -4.98401,56.48548 -4.98401,56.48548 z"
         id="path5"
         sodipodi:nodetypes="cscsscc" />
      <path
         style="fill:#aa8800;fill-opacity:1;stroke-width:0.866829"
         d="m 653.57018,256.62475 c 0,0 4.91915,41.22555 7.28811,50.54591 3.23586,12.73105 25.33736,58.86336 25.33736,58.86336 0,0 16.8457,-9.65599 21.54835,-19.07612 0.58781,-1.17746 -16.85915,-26.83382 -20.86161,-41.22093 -2.92212,-10.50377 -4.38318,-48.26057 -4.38318,-48.26057 z"
         id="path7"
         sodipodi:nodetypes="cscsscc" />
      <path
         style="fill:#aa8800;fill-opacity:1"
         d="m 554.88674,246.87475 c 0,0 5.26117,-43.93203 7.95486,-54.84083 3.67942,-14.90077 34.70609,-68.3567 34.70609,-68.3567 0,0 13.42804,-5.82815 21.79894,-5.81267 7.36726,0.0136 -25.31272,28.63651 -31.23315,75.51513 -3.71985,29.45421 -7.30988,54.15961 -7.30988,54.15961 z"
         id="path6"
         sodipodi:nodetypes="cscsscc" />
      <path
         style="fill:#aa8800;fill-opacity:1;stroke-width:0.866829"
         d="m 581.35616,243.93752 c 0,0 -1.15997,50.1536 -3.52893,59.47396 -3.23586,12.73105 -19.93354,56.98377 -19.93354,56.98377 0,0 -9.56229,-6.13176 -14.03,-23.77509 -0.32305,-1.27576 5.81657,-23.30959 9.81903,-37.6967 2.92212,-10.50377 1.5638,-55.54398 1.5638,-55.54398 z"
         id="path8"
         sodipodi:nodetypes="cscsscc" />
      <path
         style="fill:#ffffff;fill-opacity:1;stroke-width:0.86526"
         d="m 631.54759,265.71995 c 4.88228,-8.64492 12.95844,-27.78255 20.66471,-32.77253 13.44574,-7.0235 31.98115,5.92013 46.52487,16.56799 -19.92601,18.39143 -26.1955,20.83402 -48.0863,22.94434 -8.23734,-1.39083 -13.22575,-3.43615 -19.10328,-6.7398 z"
         id="path2"
         sodipodi:nodetypes="ccccc"
         inkscape:label="Y.Right" />
      <path
         style="fill:#ffffff;fill-opacity:1;stroke-width:0.86526"
         d="m 594.90372,266.61944 c -3.75476,-12.91717 -10.74284,-30.27604 -18.21416,-34.79612 -12.271,-2.55948 -17.76418,12.2131 -33.48264,13.22807 10.05816,9.69833 16.79755,22.24371 25.53123,22.70939 7.29755,2.83824 20.28804,2.16231 26.16557,-1.14134 z"
         id="path3"
         sodipodi:nodetypes="ccccc"
         inkscape:label="Y.Left" />
    </g>
    <path
       style="display:inline;fill:#aa8800;fill-opacity:1;stroke:#000000;stroke-width:1.23625;stroke-opacity:1"
       d="m 505.54238,407.09355 c -12.66636,-17.84654 -28.01536,-42.63754 -37.04467,-45.53203 -17.61932,-2.58565 -58.31354,-9.32381 -82.34259,-8.10229 0.53452,8.15278 3.67354,16.91867 8.43289,18.82951 5.51715,2.71044 37.19762,6.79328 52.70145,10.45402 l 21.34044,40.84163 z"
       id="path13"
       sodipodi:nodetypes="ccccccc" />
    <path
       style="display:inline;fill:#aa8800;fill-opacity:1;stroke:#000000;stroke-width:1.23625;stroke-opacity:1"
       d="m 465.60349,409.59301 c -21.55343,-3.79284 -60.71947,-6.55196 -69.17686,-2.26486 -14.35084,10.54416 -19.28408,47.01671 -19.74928,67.02886 6.11029,5.42382 4.06866,6.17045 13.61003,5.04437 4.86889,-7.93628 16.61312,-36.98395 17.42764,-46.18422 l 51.48422,5.47531 z"
       id="path12"
       sodipodi:nodetypes="ccccccc" />
    <path
       style="display:inline;fill:#aa8800;fill-opacity:1;stroke:#000000;stroke-width:1.23625;stroke-opacity:1"
       d="m 455.71954,427.96168 c -21.49038,4.1352 -42.77026,14.07399 -49.14523,21.09299 -9.65239,14.9652 -22.94093,50.01409 -16.24559,68.87873 7.64174,2.8909 11.18513,2.0874 19.69917,-2.36422 1.72181,-9.15019 18.83472,-37.45954 16.31788,-46.34627 l 57.29317,-7.43712 7.45401,-23.22823 z"
       id="path11"
       sodipodi:nodetypes="cccccccc" />
    <path
       style="display:inline;fill:#aa8800;fill-opacity:1;stroke:#000000;stroke-opacity:1"
       d="m 450.16153,448.28194 c -14.0448,9.92946 -21.78403,13.13343 -37.15038,32.61265 -7.60084,14.63842 11.77593,37.87193 17.4147,55.72803 5.60076,7.66604 17.97598,3.91822 18.79589,-9.39795 0.79755,-10.59399 -6.53443,-27.54188 -11.39645,-32.44652 l 36.21549,-15.31197 1.4952,-22.72609 z"
       id="path10"
       sodipodi:nodetypes="cccccccc" />
    <path
       style="fill:#1a1a1a;fill-opacity:1;stroke:#000000;stroke-width:0.843954;stroke-opacity:1"
       d="M 566.12835,395.39805 726.40846,337.4344 789.56368,519.86451 524.88653,582.20418 511.60048,409.49563 Z"
       id="path30"
       sodipodi:nodetypes="cccccc" />
    <path
       style="display:inline;fill:#aa8800;fill-opacity:1;stroke:#000000;stroke-opacity:1"
       d="m 471.15532,503.053 21.92966,-8.63895 41.53344,-0.33227 -0.66454,29.23954 -38.21076,-1.32907 -22.92646,-2.32587 z"
       id="path14"
       sodipodi:nodetypes="ccccccc" />
    <path
       style="display:inline;fill:#aa8800;fill-opacity:1;stroke:#000000;stroke-opacity:1"
       d="m 461.43906,410.45521 -11.27753,38.53157 22.55506,30.07342 c 19.3269,10.49244 36.66964,45.42533 76.31393,49.73422 l 38.34099,-64.77093 c -25.4115,-27.76942 -73.76159,-60.78345 -85.20572,-63.37219 -25.36434,2.51984 -15.02206,3.03952 -40.72673,9.80391 z"
       id="path9"
       sodipodi:nodetypes="ccccccc" />
    <path
       style="display:inline;fill:#806600;fill-opacity:1;stroke:#000000;stroke-opacity:1"
       d="m 471.81986,477.13614 36.88169,17.27791 25.5846,13.95523 22.92645,7.30989 -7.97442,13.2907 c -38.73792,-0.24215 -67.91722,-44.84883 -77.41832,-51.83373 z"
       id="path15"
       sodipodi:nodetypes="cccccc" />
    <path
       style="fill:#deaa87;fill-opacity:1;stroke:#000000;stroke-opacity:1"
       d="m 783.78855,503.72981 c 0,0 -12.1796,-19.21106 -8.45816,-60.14684 2.81939,-31.01322 9.39795,-59.20705 9.39795,-59.20705 L 809.163,363.70044 c 0,0 79.41262,1.40969 98.20851,19.26579 18.79589,17.85609 13.4583,44.65325 17.3862,94.44933 2.46248,31.21817 2.81938,120.29369 2.81938,120.29369 z"
       id="path17"
       sodipodi:nodetypes="csccsscc" />
    <path
       style="display:none;fill:#806600;fill-opacity:1;stroke:#000000;stroke-opacity:1"
       d="m 545.08076,530.98385 c 0,0 -6.57855,-51.2188 39.47137,-67.1953 40.73605,-14.13292 148.95742,-10.33774 148.95742,-10.33774 0,0 8.4325,24.76929 4.69897,48.3994 -4.67326,29.57781 -15.25507,63.78782 -22.55507,77.53305 -3.3369,6.28307 -39.00146,30.07342 -39.00146,30.07342 -57.20058,-34.89388 -96.14818,-55.65817 -131.57123,-78.47283 z"
       id="path21"
       sodipodi:nodetypes="cscsscc" />
    <path
       style="fill:#deaa87;fill-opacity:1;stroke:#000000;stroke-opacity:1"
       d="m 587.44895,464.1777 262.12521,52.70923 67.66519,48.86931 15.97651,32.89281 -12.21733,28.19383 -42.29075,15.03671 -78.00293,4.69897 -253.7445,-116.53451 c -4.44625,-12.31969 12.90274,-60.84305 40.4886,-65.86635 z"
       id="path16"
       sodipodi:nodetypes="ccccccccc" />
    <path
       style="fill:#deaa87;fill-opacity:1;stroke:#000000;stroke-opacity:1"
       d="m 830.77827,395.18355 c -33.02864,-5.61269 -43.40851,11.53518 -53.09839,19.26579 -9.25767,-3.30631 -18.21652,-49.90184 -16.80228,-65.70904 1.91249,-21.37633 23.72421,-53.84002 26.67012,-57.87393 7.43978,-10.18746 45.88201,-19.41774 67.19531,-12.68723 16.91444,-5.63814 49.13718,35.153 54.50807,54.03819 5.36799,18.875 3.75917,41.35095 -2.81939,56.38766 -6.57856,15.03672 -35.71218,40.41116 -35.71218,40.41116 1.25306,-16.53988 -17.69946,-33.4196 -39.94126,-33.8326 z"
       id="path18"
       sodipodi:nodetypes="ccsscsscc" />
    <path
       style="fill:#d38d5f;fill-opacity:1;stroke:none;stroke-opacity:1"
       d="m 797.41557,283.81792 c 88.28681,27.69201 75.2244,104.82903 72.13656,145.022 -0.46376,6.03659 8.73267,2.24284 12.44493,26.96039 -0.66873,18.45544 -18.41644,47.69474 -31.01321,61.08662 0,0 25.84434,15.50661 32.4229,36.65199 5.58537,17.95298 10.80764,61.55653 10.80764,61.55653 0,0 -26.78414,18.79589 -37.12188,19.73568 -10.33774,0.9398 -56.38766,10.80764 -56.38766,10.80764 l 78.94273,-3.75918 40.41116,-14.56681 13.15712,-28.19384 -3.75918,-16.9163 -7.98825,-156.47576 c 0,0 -0.46989,-31.95302 -12.21732,-41.82086 -2.33979,-1.96542 7.23702,-18.5184 4.74523,-36.59358 -2.46328,-17.8684 -17.85419,-36.6321 -24.18378,-47.26156 -27.30622,-45.85608 -92.39699,-16.23296 -92.39699,-16.23296 z"
       id="path19"
       sodipodi:nodetypes="csscscsccccccsssc" />
    <path
       style="display:none;fill:#aa8800;fill-opacity:1;stroke:none;stroke-opacity:1"
       d="m 545.08076,530.98385 c 0,0 -6.57855,-51.2188 39.47137,-67.1953 40.73605,-14.13292 148.95742,-10.33774 148.95742,-10.33774 0,0 -34.30251,5.16887 -51.2188,22.08516 -15.011,15.01099 -31.01322,43.70045 -27.72394,73.77387 3.28928,30.07342 22.08518,60.14684 22.08518,60.14684 -57.20058,-34.89388 -96.14818,-55.65817 -131.57123,-78.47283 z"
       id="path20"
       sodipodi:nodetypes="cscsscc" />
    <path
       style="fill:#1a1a1a;fill-opacity:1;stroke:#000000;stroke-opacity:1"
       d="m 779.17252,415.69205 c -22.97844,24.04903 -40.50427,24.56668 -83.97228,27.12856 0,0 -15.08913,-41.97315 -14.76953,-69.61969 0.49974,-43.229 29.38876,-96.86573 52.62852,-118.39453 26.37933,-24.43721 130.62325,20.43125 130.62325,20.43125 0,0 -57.12599,-1.93414 -68.63593,11.76936 -28.20556,33.58096 -35.54287,64.00048 -29.69566,79.24565 9.35096,24.38032 13.82163,49.4394 13.82163,49.4394 z"
       id="path27"
       sodipodi:nodetypes="ccsscssc" />
  </g>
</svg>
